# xmcd
#
# Track frame offsets:
#	150
#	17443
#	34184
#	50013
#	68440
#	84964
#	105170
#	124703
#	138684
#	157083
#	177219
#	199230
#	217413
#	235657
#	261364
#	279784
#	299986
#	316802
#
# Disc length: 4537 seconds
#
# Revision: 3
# Processed by: cddbd v1.5.2PL0 Copyright (c) Steve Scherf et al.
# Submitted via: audiograbber 1.83.01
#
DISCID=0711b712
DTITLE=Various Artist - SFG336
DYEAR=2014
DGENRE=karaoke
TTITLE0=Katy Perry - Dark horse
TTITLE1=Shakira f. Rihanna - Can't remember to forget you
TTITLE2=Sam Smith - Money on my mind
TTITLE3=Lily Allen - Air balloon
TTITLE4=Cher - I walk alone
TTITLE5=Clean Bandit f. Jess Glynne - Rather be
TTITLE6=Katy B - Crying for no reason
TTITLE7=Pixie Lott - Nasty
TTITLE8=Matrix and Futurebound f. Max marshall - Control
TTITLE9=John Newman - Losing sleep
TTITLE10=Miley Cyrus - Adore you
TTITLE11=Neon Jungle - Braveheart
TTITLE12=Foxes - Let go for tonight
TTITLE13=Beyonce f. Jay Z - Drunk in love
TTITLE14=Karmin - I want it all
TTITLE15=Will.i.am f. Miley Cyrus and French Montana - Feelin' myself
TTITLE16=Paloma Faith - Can't rely on you
TTITLE17=Bruce Springsteen - High hopes
EXTD=
EXTT0=
EXTT1=
EXTT2=
EXTT3=
EXTT4=
EXTT5=
EXTT6=
EXTT7=
EXTT8=
EXTT9=
EXTT10=
EXTT11=
EXTT12=
EXTT13=
EXTT14=
EXTT15=
EXTT16=
EXTT17=
PLAYORDER=
